<mxfile host="app.diagrams.net" agent="Mozilla/5.0 (X11; Linux x86_64; rv:128.0) Gecko/20100101 Firefox/128.0" version="25.0.3">
  <diagram name="PÃ¡gina-1" id="R827ZaA8ItupgNz25XBL">
    <mxGraphModel dx="1434" dy="728" grid="1" gridSize="10" guides="1" tooltips="1" connect="1" arrows="1" fold="1" page="1" pageScale="1" pageWidth="1169" pageHeight="827" math="0" shadow="0">
      <root>
        <mxCell id="0" />
        <mxCell id="1" parent="0" />
        <mxCell id="3H_dOn7tErl4S_mgjef_-1" value="&lt;font style=&quot;font-size: 31px;&quot;&gt;A&lt;/font&gt;" style="rounded=0;whiteSpace=wrap;html=1;fillColor=#647687;strokeColor=#314354;fontColor=#ffffff;" vertex="1" parent="1">
          <mxGeometry x="400" y="120" width="120" height="60" as="geometry" />
        </mxCell>
        <mxCell id="3H_dOn7tErl4S_mgjef_-2" value="&lt;font style=&quot;font-size: 31px;&quot;&gt;B&lt;/font&gt;" style="rounded=0;whiteSpace=wrap;html=1;fillColor=#647687;strokeColor=#314354;fontColor=#ffffff;" vertex="1" parent="1">
          <mxGeometry x="270" y="240" width="120" height="60" as="geometry" />
        </mxCell>
        <mxCell id="3H_dOn7tErl4S_mgjef_-3" value="&lt;font style=&quot;font-size: 31px;&quot;&gt;C&lt;/font&gt;" style="rounded=0;whiteSpace=wrap;html=1;fillColor=#647687;strokeColor=#314354;fontColor=#ffffff;" vertex="1" parent="1">
          <mxGeometry x="525" y="240" width="120" height="60" as="geometry" />
        </mxCell>
        <mxCell id="3H_dOn7tErl4S_mgjef_-4" value="&lt;font style=&quot;font-size: 31px;&quot;&gt;D&lt;/font&gt;" style="rounded=0;whiteSpace=wrap;html=1;fillColor=#647687;strokeColor=#314354;fontColor=#ffffff;" vertex="1" parent="1">
          <mxGeometry x="400" y="370" width="120" height="60" as="geometry" />
        </mxCell>
        <mxCell id="3H_dOn7tErl4S_mgjef_-5" value="" style="shape=flexArrow;endArrow=classic;html=1;rounded=0;fillColor=#fa6800;strokeColor=#C73500;" edge="1" parent="1">
          <mxGeometry width="50" height="50" relative="1" as="geometry">
            <mxPoint x="350" y="230" as="sourcePoint" />
            <mxPoint x="400" y="180" as="targetPoint" />
          </mxGeometry>
        </mxCell>
        <mxCell id="3H_dOn7tErl4S_mgjef_-6" value="" style="shape=flexArrow;endArrow=classic;html=1;rounded=0;fillColor=#fa6800;strokeColor=#C73500;" edge="1" parent="1">
          <mxGeometry width="50" height="50" relative="1" as="geometry">
            <mxPoint x="510" y="360" as="sourcePoint" />
            <mxPoint x="560" y="310" as="targetPoint" />
          </mxGeometry>
        </mxCell>
        <mxCell id="3H_dOn7tErl4S_mgjef_-7" value="" style="shape=flexArrow;endArrow=classic;html=1;rounded=0;fillColor=#fa6800;strokeColor=#C73500;flowAnimation=0;shadow=0;entryX=1;entryY=1;entryDx=0;entryDy=0;" edge="1" parent="1" target="3H_dOn7tErl4S_mgjef_-1">
          <mxGeometry width="50" height="50" relative="1" as="geometry">
            <mxPoint x="560" y="230" as="sourcePoint" />
            <mxPoint x="525" y="180" as="targetPoint" />
          </mxGeometry>
        </mxCell>
        <mxCell id="3H_dOn7tErl4S_mgjef_-8" value="" style="shape=flexArrow;endArrow=classic;html=1;rounded=0;fillColor=#fa6800;strokeColor=#C73500;flowAnimation=0;shadow=0;entryX=1;entryY=1;entryDx=0;entryDy=0;" edge="1" parent="1">
          <mxGeometry width="50" height="50" relative="1" as="geometry">
            <mxPoint x="410" y="360" as="sourcePoint" />
            <mxPoint x="370" y="310" as="targetPoint" />
          </mxGeometry>
        </mxCell>
      </root>
    </mxGraphModel>
  </diagram>
</mxfile>
